#!OML:ASF I:\Actors\actors\Patient Classification 2\Patient 1\Session 1\actor1.ASF
:FULLY-SPECIFIED
:DEGREES
210
root -0.851156 18.3371 7.43762 -2.4209 -5.27062 -5.50329
lowerback -1.64602 0.762057 3.01919
upperback -7.88944 1.12407 0.594824
thorax -7.26384 0.379675 -1.1161
lowerneck -13.9805 4.89822 8.09596
upperneck 33.5582 3.84958 3.11909
head 13.9244 3.16377 0.474558
rclavicle -2.18663e-015 -1.27222e-014
rhumerus -35.787 9.52223 -94.6563
rradius 111.365
rwrist 26.7938
rhand 14.6202 -49.7415
rfingers 7.12502
rthumb 39.494 -75.1182
lclavicle -2.18663e-015 -1.27222e-014
lhumerus -30.8412 -15.9999 101.768
lradius 117.939
lwrist -23.8977
lhand 41.7982 1.51816
lfingers 7.12502
lthumb 63.868 10.4737
rfemur 16.6017 4.27932 20.0017
rtibia -3.81667e-014
rfoot -18.359 -10.4142
rtoes -20.2585
lfemur 3.1538 -3.24034 -9.2855
ltibia 27.4465
lfoot -27.5251 10.4456
ltoes -58.2517
211
root -0.847328 18.3375 7.44187 -2.42672 -5.13215 -5.4921
lowerback -1.68508 1.0251 3.12087
upperback -7.83662 1.47868 0.623218
thorax -7.16836 0.552244 -1.15777
lowerneck -13.3511 6.54006 9.64875
upperneck 33.2057 5.97765 3.09521
head 13.784 4.28449 0.535115
rclavicle 1.66979e-014 9.93923e-015
rhumerus -35.8036 9.31823 -94.4949
rradius 111.532
rwrist 26.746
rhand 15.2477 -50.1209
rfingers 7.12502
rthumb 40.0848 -75.3213
lclavicle 1.66979e-014 9.93923e-015
lhumerus -30.6326 -16.3771 101.8
lradius 117.847
lwrist -23.7003
lhand 41.6054 1.36082
lfingers 7.12502
lthumb 63.7119 10.5463
rfemur 16.6307 4.14976 19.9554
rtibia 3.18055e-014
rfoot -18.3773 -10.3635
rtoes -20.0816
lfemur 3.14328 -3.74454 -9.42371
ltibia 27.4691
lfoot -27.6408 10.5794
ltoes -58.1703
212
root -0.843867 18.3379 7.44468 -2.40701 -4.9799 -5.44159
lowerback -1.67158 1.30616 3.20472
upperback -7.80647 1.85844 0.631653
thorax -7.12582 0.736754 -1.21196
lowerneck -12.6015 8.01939 11.0994
upperneck 32.7731 7.98089 2.9144
head 13.6208 5.31192 0.525607
rclavicle -2.3059e-014 -2.38542e-015
rhumerus -35.7733 9.04106 -94.2405
rradius 111.67
rwrist 26.8503
rhand 15.2907 -50.1555
rfingers 7.12502
rthumb 40.1252 -75.3436
lclavicle -2.3059e-014 -2.38542e-015
lhumerus -30.4289 -16.82 101.799
lradius 117.761
lwrist -23.3692
lhand 41.4869 1.29192
lfingers 7.12502
lthumb 63.6157 10.6172
rfemur 16.6282 4.00862 19.8646
rtibia 2.38542e-014
rfoot -18.3677 -10.2824
rtoes -19.713
lfemur 3.07835 -4.12649 -9.56847
ltibia 27.5037
lfoot -27.7429 10.6857
ltoes -58.0925
213
root -0.838544 18.3384 7.44556 -2.37771 -4.80176 -5.36707
lowerback -1.60805 1.57992 3.26383
upperback -7.80387 2.23066 0.637912
thorax -7.14224 0.917781 -1.25587
lowerneck -11.9448 9.28978 12.3607
upperneck 32.4605 9.75841 2.63862
head 13.5487 6.20479 0.485808
rclavicle 2.74323e-014 4.37326e-015
rhumerus -35.8303 8.81594 -94.0112
rradius 111.781
rwrist 27.0091
rhand 14.6314 -49.8803
rfingers 7.12502
rthumb 39.5045 -75.2539
lclavicle 2.74323e-014 4.37326e-015
lhumerus -30.2733 -17.252 101.77
lradius 117.716
lwrist -22.9834
lhand 41.542 1.25656
lfingers 7.12502
lthumb 63.6605 10.5169
rfemur 16.6082 3.84359 19.7432
rtibia 1.59028e-015
rfoot -18.2929 -10.2399
rtoes -19.5955
lfemur 2.9701 -4.44447 -9.73152
ltibia 27.5623
lfoot -27.8026 10.8319
ltoes -58.0553
214
root -0.831922 18.3397 7.44563 -2.39651 -4.60314 -5.32054
lowerback -1.46204 1.8367 3.35899
upperback -7.79929 2.58527 0.647923
thorax -7.20341 1.08698 -1.31843
lowerneck -11.2067 10.3359 13.4312
upperneck 32.0482 11.2942 2.30892
head 13.4201 6.95891 0.409476
rclavicle -5.76476e-015 7.95139e-016
rhumerus -35.9424 8.67948 -93.9113
rradius 111.806
rwrist 27.1289
rhand 15.2972 -50.1654
rfingers 7.12502
rthumb 40.1314 -75.3516
lclavicle -5.76476e-015 7.95139e-016
lhumerus -30.177 -17.6505 101.712
lradius 117.684
lwrist -22.6723
lhand 41.5529 1.1031
lfingers 7.12502
lthumb 63.6693 10.3506
rfemur 16.6393 3.65677 19.654
rtibia 3.33958e-014
rfoot -18.1764 -10.2215
rtoes -19.8287
lfemur 2.89552 -4.75975 -9.87109
ltibia 27.649
lfoot -27.85 10.9686
ltoes -58.0422
215
root -0.827284 18.3401 7.44491 -2.47394 -4.34671 -5.33113
lowerback -1.25402 2.05211 3.49471
upperback -7.79048 2.88975 0.670015
thorax -7.29643 1.2284 -1.39218
lowerneck -10.4379 11.1876 14.2074
upperneck 31.6121 12.5974 2.07147
head 13.2493 7.58926 0.37007
rclavicle -2.38542e-015 -1.47101e-014
rhumerus -36.0443 8.64102 -93.9184
rradius 111.751
rwrist 27.2422
rhand 16.1945 -50.5957
rfingers 7.12502
rthumb 40.9748 -75.5201
lclavicle -2.38542e-015 -1.47101e-014
lhumerus -30.1307 -17.9544 101.611
lradius 117.667
lwrist -22.4084
lhand 41.6171 0.868214
lfingers 7.12502
lthumb 63.7213 10.0398
rfemur 16.7466 3.40758 19.6357
rtibia 3.65764e-014
rfoot -18.0596 -10.1534
rtoes -19.7356
lfemur 2.84715 -5.01594 -9.90502
ltibia 27.7661
lfoot -27.846 10.9789
ltoes -58.0489
216
root -0.823173 18.3394 7.44127 -2.5542 -4.11382 -5.40105
lowerback -1.0358 2.25604 3.66609
upperback -7.77553 3.18296 0.723302
thorax -7.38853 1.36288 -1.45431
lowerneck -9.61485 11.8709 14.903
upperneck 31.1418 13.6979 1.78926
head 13.0506 8.11703 0.285014
rclavicle -3.29983e-014 -1.11319e-014
rhumerus -36.039 8.71132 -93.9259
rradius 111.6
rwrist 27.2574
rhand 16.1951 -50.7883
rfingers 7.12502
rthumb 40.9753 -75.7125
lclavicle -3.29983e-014 -1.11319e-014
lhumerus -30.075 -18.1334 101.49
lradius 117.718
lwrist -22.1031
lhand 41.8878 0.841844
lfingers 7.12502
lthumb 63.9404 9.68967
rfemur 16.8462 3.17929 19.678
rtibia 7.95139e-015
rfoot -18.0156 -10.0834
rtoes -19.3254
lfemur 2.77849 -5.24997 -9.86755
ltibia 27.9065
lfoot -27.8224 11.0027
ltoes -58.0693
